<?xml version="1.0" encoding="utf-8"?>
<!-- Generator: Adobe Illustrator 21.0.2, SVG Export Plug-In . SVG Version: 6.00 Build 0)  -->
<svg version="1.1" id="Layer_1" xmlns="http://www.w3.org/2000/svg" xmlns:xlink="http://www.w3.org/1999/xlink" x="0px" y="0px"
	 viewBox="0 0 670 710" style="enable-background:new 0 0 670 710;" xml:space="preserve">
<style type="text/css">
	.st0{display:none;}
	.st1{display:inline;}
	.st2{fill:#25FF82;}
	.st3{display:inline;fill:#F3B133;}
	.st4{display:inline;fill:#FFFFFF;fill-opacity:0.8;}
	.st5{display:inline;fill:#AF4CE3;}
	.st6{display:inline;fill:#E3764C;}
	.st7{display:inline;fill:#7930E3;}
	.st8{fill:#3D43B1;}
	.st9{fill:#23D5FB;}
	.st10{opacity:0.8;}
	.st11{fill:#FFFFFF;}
	.st12{fill:#F3B133;}
	.st13{fill:#FFFFFF;fill-opacity:0.8;}
	.st14{fill:#33A8F3;}
	.st15{fill:#464CAC;}
	.st16{fill:#FFD43A;}
	.st17{fill:#FFFFFF;stroke:#D0D0D0;}
	.st18{fill:#62626B;}
	.st19{fill:#AC3DE8;}
	.st20{fill:#E3764C;}
	.st21{fill:#7930E3;}
</style>
<g class="st0">
	<g class="st1">
		<path id="path-1_5_" class="st2" d="M344.5,53h253c4.4,0,8,3.6,8,8v240c0,4.4-3.6,8-8,8h-253c-4.4,0-8-3.6-8-8V61
			C336.5,56.6,340.1,53,344.5,53z"/>
	</g>
	<circle id="avatar_5_" class="st3" cx="380.5" cy="97" r="20"/>
	<path id="text-line_15_" class="st4" d="M412.5,81h46c2.2,0,4,1.8,4,4v4c0,2.2-1.8,4-4,4h-46c-2.2,0-4-1.8-4-4v-4
		C408.5,82.8,410.3,81,412.5,81z"/>
	<path id="text-line_14_" class="st4" d="M412.5,101h74c2.2,0,4,1.8,4,4v4c0,2.2-1.8,4-4,4h-74c-2.2,0-4-1.8-4-4v-4
		C408.5,102.8,410.3,101,412.5,101z"/>
	<circle id="avatar_4_" class="st5" cx="380.5" cy="153" r="20"/>
	<path id="text-line_13_" class="st4" d="M412.5,137h46c2.2,0,4,1.8,4,4v4c0,2.2-1.8,4-4,4h-46c-2.2,0-4-1.8-4-4v-4
		C408.5,138.8,410.3,137,412.5,137z"/>
	<path id="text-line_12_" class="st4" d="M412.5,157h149c2.2,0,4,1.8,4,4v4c0,2.2-1.8,4-4,4h-149c-2.2,0-4-1.8-4-4v-4
		C408.5,158.8,410.3,157,412.5,157z"/>
	<circle id="avatar_2_" class="st6" cx="380.5" cy="209" r="20"/>
	<path id="text-line_11_" class="st4" d="M412.5,193h46c2.2,0,4,1.8,4,4v4c0,2.2-1.8,4-4,4h-46c-2.2,0-4-1.8-4-4v-4
		C408.5,194.8,410.3,193,412.5,193z"/>
	<path id="text-line_10_" class="st4" d="M412.5,213h110c2.2,0,4,1.8,4,4v4c0,2.2-1.8,4-4,4h-110c-2.2,0-4-1.8-4-4v-4
		C408.5,214.8,410.3,213,412.5,213z"/>
	<circle id="avatar_3_" class="st7" cx="380.5" cy="265" r="20"/>
	<path id="text-line_9_" class="st4" d="M412.5,249h46c2.2,0,4,1.8,4,4v4c0,2.2-1.8,4-4,4h-46c-2.2,0-4-1.8-4-4v-4
		C408.5,250.8,410.3,249,412.5,249z"/>
	<path id="text-line_4_" class="st4" d="M412.5,269h110c2.2,0,4,1.8,4,4v4c0,2.2-1.8,4-4,4h-110c-2.2,0-4-1.8-4-4v-4
		C408.5,270.8,410.3,269,412.5,269z"/>
</g>
<g id="Templates">
	<g id="Landing-Page-Example" transform="translate(-175.000000, -1815.000000)">
		<g id="images" transform="translate(111.000000, 1692.000000)">
			<g id="feature-moons" transform="translate(64.000000, 123.000000)">
				<path class="st2" d="M416.3,358.8c-29,31.5-70.6,51.2-116.8,51.2c-87.8,0-159-71.2-159-159s71.2-159,159-159
					c46.7,0,88.6,20.1,117.7,52.1c-57.2,2.5-102.7,49.6-102.7,107.4C314.5,309,359.6,355.9,416.3,358.8z"/>
			</g>
		</g>
	</g>
</g>
<g id="Templates_1_">
	<g id="Landing-Page-Example_1_" transform="translate(-188.000000, -1676.000000)">
		<g id="images_1_" transform="translate(111.000000, 1692.000000)">
			<g id="feature-window-3" transform="translate(101.000000, 0.000000)">
				<g id="window">
					<g>
						<path id="path-1_12_" d="M-14.3-15h298.1c4.4,0,8,3.6,8,8v129c0,4.4-3.6,8-8,8H-14.3c-4.4,0-8-3.6-8-8V-7
							C-22.3-11.4-18.7-15-14.3-15z"/>
					</g>
					<g>
						<path id="path-1_1_" class="st8" d="M-14.3-15h298.1c4.4,0,8,3.6,8,8v129c0,4.4-3.6,8-8,8H-14.3c-4.4,0-8-3.6-8-8V-7
							C-22.3-11.4-18.7-15-14.3-15z"/>
					</g>
				</g>
				<path id="Rectangle" class="st9" d="M201.3,32.1h60c4.4,0,8,3.6,8,8v60c0,4.4-3.6,8-8,8h-60c-4.4,0-8-3.6-8-8v-60
					C193.3,35.7,196.8,32.1,201.3,32.1z"/>
				<g id="nav" transform="translate(16.363636, 15.545455)" class="st10">
					<g id="nav-right" transform="translate(228.181818, 0.000000)">
						<g id="pencil" transform="translate(22.090909, 0.000000)">
							<path id="Shape" class="st11" d="M-13.5-15c-0.2,0-0.5,0.1-0.6,0.3l-0.6,0.6l2.2,2.2l0.6-0.6c0.3-0.3,0.3-0.9,0-1.3l-1-1
								C-13-14.9-13.3-15-13.5-15z M-15.6-13.2l-5.3,5.3l0.7,0.2l0.2,1.1l1.1,0.2l0.2,0.7l5.3-5.3L-15.6-13.2z M-21.8-6.1l-0.5,1.4
								c0,0,0,0.1,0,0.1c0,0.1,0.1,0.2,0.2,0.2c0,0,0.1,0,0.1,0l1.4-0.5L-21.8-6.1z"/>
						</g>
						<g id="speech_bubble">
							<path id="Path" class="st11" d="M-16.1-15c-3.4,0-6.1,2.3-6.1,5c0,1.5,0.8,2.9,2.2,3.8c0,0.7-0.1,1.7-1.1,2.1c0,0,0,0,0,0
								c-0.1,0-0.2,0.1-0.2,0.2c0,0.1,0.1,0.2,0.2,0.2c0,0,0,0,0,0c0,0,0,0,0,0c1.1,0,2.1-0.6,2.8-1.2c0.2-0.2,0.5-0.3,0.8-0.2
								c0.4,0.1,0.9,0.1,1.3,0.1c3.4,0,6.1-2.3,6.1-5S-12.8-15-16.1-15z"/>
						</g>
						<g id="like" transform="translate(42.545455, 0.818182)">
							<path id="Path_1_" class="st11" d="M-19.4-15c-1.6,0-2.9,1.3-2.9,2.9c0,2.8,3.2,5.5,4.7,6.7c0,0,0,0,0,0c0,0,0,0,0,0l0,0
								c0.2,0.1,0.3,0.2,0.5,0.2c0.2,0,0.4-0.1,0.5-0.2v0c0,0,0,0,0,0c0,0,0,0,0,0c0,0,0,0,0,0c1.5-1.2,4.8-3.9,4.8-6.7
								c0-1.6-1.3-2.9-2.9-2.9c-1.5,0-2.4,1.3-2.4,1.3S-17.8-15-19.4-15z"/>
						</g>
					</g>
					<g id="close" transform="translate(0.000000, 0.818182)">
						<path id="Path_2_" class="st11" d="M-21.4-15c-0.4,0-0.7,0.2-0.8,0.6s-0.1,0.7,0.2,1l2.5,2.5L-22-8.4
							c-0.2,0.2-0.3,0.6-0.2,0.9c0.1,0.3,0.3,0.6,0.6,0.6c0.3,0.1,0.7,0,0.9-0.2l2.5-2.5l2.5,2.5c0.2,0.2,0.6,0.3,0.9,0.2
							c0.3-0.1,0.6-0.3,0.6-0.6s0-0.7-0.2-0.9l-2.5-2.5l2.5-2.5c0.3-0.3,0.3-0.7,0.2-1c-0.1-0.3-0.5-0.6-0.9-0.6
							c-0.2,0-0.5,0.1-0.6,0.3l-2.5,2.5l-2.5-2.5C-20.9-14.9-21.1-15-21.4-15z"/>
					</g>
				</g>
				<g id="row" transform="translate(20.000000, 38.000000)">
					<circle id="avatar" class="st12" cx="-2.3" cy="5" r="20"/>
					<path id="text-line" class="st13" d="M29.7-11h46c2.2,0,4,1.8,4,4v4c0,2.2-1.8,4-4,4h-46c-2.2,0-4-1.8-4-4v-4
						C25.7-9.2,27.5-11,29.7-11z"/>
					<path id="text-line_1_" class="st13" d="M29.7,9h114c2.2,0,4,1.8,4,4v4c0,2.2-1.8,4-4,4h-114c-2.2,0-4-1.8-4-4v-4
						C25.7,10.8,27.5,9,29.7,9z"/>
				</g>
				<g id="row_1_" transform="translate(20.000000, 90.000000)">
					<circle id="avatar_1_" class="st14" cx="-2.3" cy="5" r="20"/>
					<path id="text-line_2_" class="st13" d="M29.7-11h46c2.2,0,4,1.8,4,4v4c0,2.2-1.8,4-4,4h-46c-2.2,0-4-1.8-4-4v-4
						C25.7-9.2,27.5-11,29.7-11z"/>
					<path id="text-line_3_" class="st13" d="M29.7,9h114c2.2,0,4,1.8,4,4v4c0,2.2-1.8,4-4,4h-114c-2.2,0-4-1.8-4-4v-4
						C25.7,10.8,27.5,9,29.7,9z"/>
				</g>
			</g>
		</g>
	</g>
</g>
<g>
	<path class="st15" d="M582.9,56.4c0.3,1.2-0.1,2.1-1,2.8c-1.6,1.3-3.5,2.3-5.2,3.4c-3.1,2-6.4,3.9-9.3,6.3
		c-2.7,2.2-5.1,4.8-7.1,7.7c-1.2-4.7-2.3-9.4-4.8-13.6c-1.9-3.1-4.4-7.9-8.6-8.2c-1-0.1-2.1,0.7-2.9,1.1c-1.1,0.5-2.2,1-3.4,1.5
		c-2.2,1-4.5,1.8-6.7,2.6c-4.5,1.7-8.9,3.3-13.5,4.7c-0.7,0.2-2,0.9-2.7,0.6c-0.6-0.3-0.8-1.1-1-1.6c-0.8-1.8-1.7-3.5-2.8-5.1
		c-2.3-3.5-5.2-6.7-8.2-9.7c-1.5-1.5-3-3-4.5-4.5c-0.7-0.7-2-1.6-1.3-2.7c0.4-0.7,1.4-1.2,2-1.7c0.7-0.6,1.4-1.3,2.1-1.9
		c1.6-1.6,3.2-3.1,4.7-4.7c6-6,12.1-11.8,18.1-17.8c0.8-0.8,1.7-1.7,2.5-2.5c0.4-0.4,0.9-1.1,1.5-1.1c0.7,0,0.9,0.6,1.4,0.8
		c0.5,0.1,1.3-0.2,1.9-0.2c1.4,0.1,2.7,0.9,4,1.3c1.7,0.6,3.5,1,5.2,1.7c6.9,2.6,13.1,6.7,18.9,11.3c1.6,1.2,2.9,2.6,4.2,4.1
		c1.2,1.4,2.6,2.7,3.7,4.2c2.5,3.6,4.5,7.5,6.9,11.2C579.1,49.3,582.1,52.8,582.9,56.4 M550,61.9c1.3,2.6,2.4,5.2,3.1,8
		c0.7,2.9,0.9,5.9,1.2,8.8c0.3,2.8,0.8,5.6,0.9,8.4c0.1,2.8-0.2,5.5,0.2,8.2c0.7,5.6,0,11.3,0.2,16.9c0.3,5.8,0.2,11.4-0.1,17.2
		c-0.2,2.7-0.1,5.7-0.7,8.4c-0.3,1.3-0.7,2.7-1.2,4c-0.4,1.1-1.1,0.7-1.9,1.4c-1.2,0.9-1.1,3-1.5,4.4c-0.8,2.5-1.7,5.1-2.7,7.5
		c-1.1,2.5-2.5,4.9-3.7,7.3c-1.1,2.4-2.3,4.6-3.8,6.7c-3.1,4.1-6.6,9.1-11.4,11.2c-2.2,1-4.1,0.1-6-1.3c-2-1.5-2.8-4.1-3.8-6.4
		c-1.1-2.7-1.6-5.3-1.3-8.2c0.3-2.8-1.7-3.5-4-4.7c-5-2.5-10.6-3.7-16-5.3c-2.8-0.8-5.5-1.7-8.3-2.5c-1.5-0.5-3.1-0.9-4.6-1.4
		c-1.1-0.3-2.1-0.5-2.9-1.3c1.5-2.1,3.2-4.2,4.4-6.5c2.5-4.8,4.3-10.1,6.5-15c1-2.4,1.5-4.9,2-7.5c0.5-2.4,1.2-4.9,1.5-7.4
		c0.5-5.3,1.4-10.8,1.3-16.2c-0.1-2.7-0.7-5.2-1.3-7.8c-0.4-1.6-0.7-3.1-1-4.7c-0.2-1-0.9-2.6-0.7-3.6c0.4-1.9,4.8-1.3,6.2-1.6
		c2.7-0.4,5.2-1.2,7.8-2.1c5.4-1.7,10.8-3.6,16.3-5.1c2.9-0.8,5.8-1.5,8.6-2.6c2.7-1,5.2-2.4,7.8-3.7c0.6-0.3,1.3-0.5,1.4-1.2
		c0.1-0.4-0.3-0.7,0-1.1c0.3-0.6,0.9-0.7,1.5-0.9c1.1-0.4,2.2-0.9,3.3-1.2c0.5-0.2,1.3-0.7,1.8-0.6C549.4,60.5,549.7,61.3,550,61.9
		 M511.7,167c0,3,1,6.8,2.3,9.5c0.7,1.5,1.6,2.8,2.6,4.1c0.9,1.1,2.3,2.2,2.7,3.5c-3.8,0.1-7.5,0.1-11.3,0.3
		c-3.2,0.2-6.2-0.7-9.3-1.4c-3.4-0.8-6.6-1.9-9.9-2.8c-3.6-1-7.2-1.8-10.7-2.7c-6.4-1.6-12.2-4.1-18.2-6.9
		c-5.2-2.5-12.4-5.3-14.9-10.9c-1.2-2.6-2.4-5.6-2.3-8.5c0.1-2.4,0.9-5.5,2-7.6c1.1-2.1,4.2,0.2,5.7,0.8c3.2,1.3,6.4,2.5,9.6,3.8
		c6.1,2.4,12.1,5.1,18.3,7c6.3,1.9,12.7,3.7,19.1,5.1c3.2,0.7,6.6,1.2,9.8,2.2c1.2,0.4,3.1,0.5,4.1,1.2
		C512.3,164.5,511.7,165.9,511.7,167 M587.2,54.8c-0.7,0.2-0.6,0.3-1-0.3c-0.6-0.9-0.8-2.3-1.2-3.3c-1.9-4.9-4.5-9.7-7.3-14.2
		c-5.4-8.8-11.8-17-20.6-22.6c-4.1-2.6-8.3-4.8-12.9-6.2c-2.1-0.6-4.3-1.4-6.5-1.8c-1.1-0.2-2.4,0.1-3.5-0.2c-0.6-0.1-1.1-0.7-1.6-1
		c-2.2-1-3.9-0.7-5.9,0.5c-2.1,1.3-4.1,3.1-5.9,4.8c-3.9,3.5-7.2,7.8-10.8,11.7c-3.6,3.9-7.1,7.9-10.5,11.9
		c-1.5,1.7-3.5,3.5-4.6,5.6c-0.7,1.2-0.5,2.3,0.2,3.5c2.5,4.1,6.2,7.6,9.5,11.1c3.5,3.8,6.8,7.8,9.4,12.2c-4.7,1.9-9.3,3.8-14.1,5.4
		c-2.4,0.8-4.8,1.7-7.2,2.5c-1.2,0.4-2,0.3-3.2,0.1c-1.1-0.1-1.3,0.5-1.2,1.5c0.3,5.1,1.8,10,1.9,15.1c0,2.3-0.2,4.6-0.2,6.9
		c0,2.5-0.2,5.1-0.6,7.5c-0.2,1.1-0.6,2.2-0.8,3.3c-0.2,1-0.2,2.1-0.4,3.2c-0.3,2.2-1,4.3-1.7,6.4c-0.7,2.1-1.4,4.2-2,6.4
		c-0.6,2.1-1.6,4.1-2.3,6.1c-0.7,1.9-1.1,3.9-1.9,5.8c-0.7,1.9-0.5,3.8-1.3,5.6c-0.5,1-1.1,1.9-1.5,2.8c-0.4,0.8-0.6,2-1.6,2.2
		c-1.1,0.3-2.5-0.6-3.5-1c-1.2-0.5-2.4-1-3.7-1.4c-4.8-1.8-9.7-3.6-14.5-5.4c-2.4-0.9-4.8-1.5-7.2-2.5c-1.7-0.7-3.9-0.7-5.1,0.9
		c-1.1,1.6-2.6,3.3-3.2,5.2c-0.7,2.1-0.9,4.4-1.2,6.5c-0.3,2.2,0.2,4.4,0.8,6.5c0.7,2.2,1.4,4.5,2.6,6.5c2.3,3.9,5.3,8,9.3,10.2
		c1.9,1.1,4,1.5,6.1,2.2c2.2,0.8,4.2,2.1,6.2,3.2c4.1,2.2,8.6,3.8,13.1,5.2c2.1,0.7,4.4,1,6.5,1.7c2.3,0.7,4.5,1.2,6.9,1.6
		c2.4,0.4,4.7,1.3,7.1,1.9c2.4,0.7,4.8,1.2,7.3,1.6c4.8,0.7,9.1,0.5,13.9-0.3c5.2-0.9,10.5-1.3,15.7-2.1c2.5-0.4,4.2-2.4,5.9-4.1
		c1.7-1.7,3.4-3.6,4.8-5.6c2.8-4.1,5.3-8.6,8-12.8c2.8-4.4,4.8-8.8,6.1-13.9c1.2-4.8,2.7-9.7,3.5-14.6c1.8-9.9,0.8-20.1,0.8-30.2
		c0-5.3,0.1-10.6-0.4-15.9c-0.2-2.6-0.5-5.2-0.7-7.8c-0.1-1.1,0.1-1.6,1-2.3c1.1-0.8,2.2-1.4,3.3-2.1c4.3-2.8,8.5-5.9,12.6-9
		c3.9-2.8,7.8-5.7,10.5-9.8c0.6-0.9,1.3-1.9,1.3-2.9c0-0.5-0.5-2.7-0.9-2.9C588.6,54.2,587.5,54.7,587.2,54.8"/>
	<path class="st15" d="M83.4,265.2c-1.4-3.5-3.2-6.8-4.6-10.3c-1.4-3.3-2.3-6.9-3.3-10.4c-0.9-3.5-1.2-7-1.4-10.6
		c-0.1-2-0.2-4-0.3-6c-0.1-1.2-0.3-2.4,0.8-3.3c1.4-1.1,3.4-1.7,4.9-2.6c1.6-0.8,3.1-1.7,4.6-2.7c3.3-2,6.5-4.2,9.8-6.3
		c3.1-2,6.3-3.8,9.2-6.1c1.5-1.2,3-2.4,4.4-3.7c1.1-0.9,2.4-2.6,3.8-2.9c0.2,4.3,1.6,8.3,3.5,12.2c0.7,1.5,0.9,2.2-0.8,2.9
		c-2,0.9-4.1,1.6-6.2,2.4c-3.9,1.4-7.9,2.5-11.9,3.7c-1.9,0.6-3.8,1-5.6,1.4c-1.3,0.3-1.6,1.1-1.5,2.4c0.1,0.9,0.2,1.3-0.3,2.2
		c-0.4,0.7-0.9,1.3-1.2,2c-0.6,1.3-1,2.7-1.2,4.1c-0.5,3.1-0.2,6.3,0.1,9.5c0.9,7.8,3.2,15.7,6.5,22.8c1.7,3.6,2.8,7.5,4.6,11.1
		c0.8,1.6,2.2,3.4,1.4,5.2c-0.7,1.8-2,3.4-3,5c-3.1-3-5.3-6.7-7.2-10.5C86.8,273,85,269.2,83.4,265.2 M127.5,219.4
		c1.8-0.4,3.6-0.8,5.3-1.2c0.5,7.9,4.2,15,7.4,22c1.4,3.1,3.1,6.2,4.9,9.1c1.9,3,4.1,5.7,6.3,8.4c0.5,0.6,1.4,1.6,1.2,2.4
		c-0.2,0.9-1.6,2.1-2.1,2.8c-2.2,2.6-4.2,5.4-6.5,7.9c-2.3,2.6-5,4.7-7.1,7.5c-2.1,2.7-4.3,5.2-6.7,7.7c-2.3,2.4-4.9,4.6-7,7.2
		c-2,2.5-3.3,5.2-4.6,8.1c-3.4-3.5-6-7.4-8.4-11.6c-2.3-4-4.8-8.2-6.4-12.5c-0.7-2-1.6-3.7-2.6-5.6c-0.9-1.7-1.3-3.5-2-5.3
		c-1.5-3.9-3.4-7.6-4.7-11.5c-2.5-7.5-4.3-15.8-3.5-23.7c0.1-0.5,0-1.2,0.2-1.7c0.3-0.8,0.2-0.6,1.1-0.6c0.9,0,1.7,0.1,2.6,0
		c1.8-0.1,3.6-0.6,5.4-0.9c2-0.4,3.9-0.4,5.9-1c1.9-0.6,3.7-1.4,5.5-2c1-0.3,2.1-0.4,3.1-0.7c0.9-0.2,1.6-0.6,2.4-0.9
		c1.6-0.6,3.4-0.9,5-1.6C124.2,221,125.5,219.8,127.5,219.4 M85.1,278.1c2.7,4,5.9,7.6,9.5,10.8c1.2,1,2.7,2.5,4.4,2.1
		c1.6-0.4,2.8-2.3,3.9-3.3c4.1,5.7,7.8,11.9,13.4,16.3c0.7,0.6,1.8,1.7,2.8,1.8c1,0.1,1.6-0.8,2.2-1.4c2.5-2.7,5.3-5,8.1-7.4
		c1.4-1.2,2.8-2.3,4-3.6c1-1.1,2-2.2,3.2-3.1c2.5-1.9,4.6-4,6.8-6.3c4.6-4.7,9.3-9.2,12.9-14.7c1.7-2.6,3.6-5.3,5-8.1
		c1.2-2.3,2.2-5.4,0-7.5c-0.7-0.6-2-1.5-3-1.3c-0.9,0.2-1.3,1.3-1.9,1.8c-1,0.8-1.2-0.2-1.7-1c-0.4-0.7-0.9-1.3-1.3-2
		c-0.9-1.4-1.8-2.7-2.7-4.1c-3.5-5.8-6.3-12-9.3-18.1c-1.5-3-2.1-6.1-2.9-9.3c-0.4-1.7-0.8-3.5-1.3-5.2c-0.2-1-0.5-2-1.2-2.8
		c-1.5-1.7-4.6-0.8-6.6-0.6c-1.7,0.2-3.3,0.5-5,1c-0.9,0.2-3,1.4-3.9,1c-0.9-0.4-1.4-2.9-1.7-3.7c-0.6-1.5-1.3-3.1-1.8-4.6
		c-0.9-2.5-2-4.7-4.7-5.5c0.7-1.5,0.6-3.9-1.6-4c-2.5,0-5.2,1.1-7,2.7c-2,1.7-4.5,3-6.7,4.4c-2.4,1.5-4.7,3-7,4.6
		c-4,2.7-8.3,4.9-12.1,7.9c-1.9,1.5-3.8,2.9-5.8,4.2c-2,1.4-3.2,2.4-3.6,4.9c-0.8,4.8-1.3,9.5-0.6,14.3c0.6,4.6,2,9,3.7,13.2
		c1.8,4.6,3.9,9,6.1,13.4C80.2,269.5,82.3,273.9,85.1,278.1"/>
	<path class="st15" d="M99,446.1c-0.7,3.2-1.3,6.4-1.7,9.6c-0.4,3.3-0.7,6.6-1,9.8c-0.3,3.2-0.9,6.3-0.8,9.5c0,1.8,0.9,3.8-1,4.7
		c-2.6,1.2-5.4,1.7-8.3,1.6c-5.7-0.2-11.2-1.7-16.2-4.6c-5.2-3-9.9-6.9-14.1-11.2c-2.3-2.4-4.5-4.8-6.5-7.4c-1.1-1.3-2.1-2.5-2.9-4
		c-0.3-0.7-0.6-1.3-0.9-2c-0.3-0.6-0.5-1.9-1.2-1.6c-0.7-1.9-1.4-3.8-2-5.7c-0.5-1.4-1.2-2.8-0.5-4.2c0.7-1.4,2.4-2.2,3.5-3.2
		c1.4-1.1,2.7-2.3,4-3.5c2.6-2.5,5-5.2,7.4-8c1.2-1.4,2.4-2.7,3.4-4.3c0.8-1.2,1.2-2.6,2.7-1.5c10.5,7.6,20.2,17.2,33,20.8
		c1,0.3,2.6,0.5,3.2,1.5C99.7,443.6,99.2,445.1,99,446.1 M102.5,435.3c-1.7-0.2-3.3,0.4-5,0.2c-1.9-0.2-3.9-1.8-5.5-2.6
		c-4-2.1-8-4.2-11.8-6.5c-3.5-2.1-6.8-4.5-10.2-6.7c-1.8-1.1-3.5-2.2-5.4-3.1c-0.8-0.4-3.1-2-4.1-1.5c-0.5,0.3-0.2,0.8-0.5,1.2
		c-0.2,0.2-0.4,0.2-0.5,0.3c-0.6,0.4-1.6,0.5-2.2,0.9c-1.7,1-3.2,2.7-4.6,4c-3,2.8-5.6,5.9-8.4,8.9c-2.8,2.9-6.2,5.6-8.4,9
		c-0.9,1.4-1.7,3.2,0.3,4.1c0.7,0.3,1.4,0,2,0.2c0.6,0.2,0.5,0.4,0.7,1.1c0.1,0.4,0.2,0.7,0.4,1.1c1.2,3.9,2.6,7.7,4.9,11.2
		c2.3,3.4,4.9,6.7,7.7,9.8c8.9,9.7,21.4,20.2,35.3,19.5c3.3-0.2,6.1-1.2,9.2-2.1c1-0.3,1.9-0.2,2.9-0.2c0.5,0,1.1,0.1,1.5-0.2
		c1-0.6,1-2.7,1.1-3.7c0.4-3.8,1.1-7.5,1.6-11.3c0.3-2,0.4-3.9,0.5-5.9c0-1.1-0.4-2.8,0.9-3.4c0.6,0.3,1.2,0.6,1.7,0.9
		c0.2,0.1,0.5,0.2,0.7,0.4c0.5,0.4,0.3,0,0.5,0.7c0.3,0.9,0,2.1-0.2,3c-0.9,5-1.9,10-3,14.9c-1.1,4.9-2.2,9.7-3.9,14.4
		c-0.4,0.9-0.7,2.1-1.6,2.6c-0.9,0.5-2.1,0.5-3,0.8c-2.1,0.6-4.1,1.5-6.3,1.9c-1.1,0.2-2.2,0-3.3,0.5c-0.9,0.4-1.5,0.5-2.5,0.4
		c-2.2-0.2-4.3,0.2-6.5,0.1c-4.5-0.2-9.6-1.4-13.7-3.2c-2.1-0.9-4.1-2.2-6.2-3.2c-2.1-1-4.1-1.9-6.1-3.1c-3.9-2.3-7.4-5-10.6-8.2
		c-1.7-1.6-2.6-2.7-1.6-5c0.9-2.2,1.8-4.3,2.3-6.6c0.3-1.1,1.8-5.5-0.7-4.9c-1.3,0.3-2.3,3.3-2.8,4.5c-0.9,1.9-1.8,3.8-3,5.6
		c-1.5,1.9-0.9,3.2,0.2,5.2c2.1,4.2,5.7,7.5,9.2,10.5c3.6,3.1,7.6,5.8,11.8,8c8.1,4.2,16.8,8.3,26,8.3c4.6,0,9.1-1,13.4-2.6
		c2.5-0.9,5-2,7.4-3.3c1-0.5,2.4-1.1,3.2-1.9c0.7-0.6,0.5-1.3,0.4-2.2c-0.2-2,1.2-3.9,1.7-5.8c0.6-2.1,1.2-4.1,1.8-6.2
		c1.3-4.5,1.4-9.1,2-13.7c0.3-2.6,0.8-5.1,0.9-7.7c0.1-2.1,0.1-4.8-0.5-6.8c-0.5-1.6-2.7-3.2-4.4-2.4c-0.9,0.4-1.2,1.4-2,1.9
		c-0.2,0.2-1.2,0.4-1.4,0.7c-0.3-4,0.2-8.2,0.1-12.2c0-2.3-0.1-4.5-0.3-6.8C104.4,437.1,104.5,435.6,102.5,435.3"/>
	<path class="st15" d="M590.7,151.7c0.6-2.5,0.3-5.6,0.4-8.3c0.1-2.8,0.1-5.4-0.6-8.1c-0.4-1.3-0.8-2.6-1.1-3.9
		c-0.3-1.2-0.4-2.4-1.1-3.5c-0.7-1.2-3.1-4.6-4.8-3.2c-1,0.8-0.2,1.8,0.2,2.7c0.5,1,0.8,2,1,3.1c0.4,2.5-0.2,5.2-0.2,7.8
		c0,2.5-0.3,4.9-0.9,7.3c-0.6,2.3-1.4,4.6-2.4,6.8c-0.9,1.9-2.2,3.7-2.4,5.8c-0.2,1.3-0.1,1.6-1.2,2.5c-0.8,0.7-1.5,1.5-2.1,2.4
		c-0.6,1.1-0.8,2.2-1.7,3.1c-0.7,0.8-1.6,1.5-2.3,2.3c-1.7,1.8-2.9,4.1-4.8,5.9c-0.9,0.9-1.9,1.8-2.9,2.7c-0.8,0.7-1.8,1.4-2.2,2.4
		c-0.8,1.7-0.2,4.7,1.6,5.5c1.9,0.9,4.3-1.4,5.7-2.4c0.1,0.1,0.1,0.2,0.2,0.3c2.4-1.8,4.9-3.5,7.1-5.6c1.1-1.1,2-2.3,2.9-3.6
		c0.8-1.1,1.7-1.8,2.6-2.8c0.8-0.8,1.4-1.7,1.6-2.9c0.2-1.5,0.7-1.3,1.8-2.2c1.8-1.4,2.3-4.5,3-6.5
		C589.1,156.8,590.1,154.2,590.7,151.7"/>
	<path class="st15" d="M98.3,530.7c-1.5,1.4-2.6,2.5-4.6,3.3c-1.4,0.5-2.9,0.9-4.3,1.4c-3.7,1.3-7.4,2-11.3,2.1
		c-3.5,0.1-7-0.1-10.4-1c-1.8-0.5-3.5-1.1-5.2-1.8c-1.2-0.5-2.3-0.8-3.6-0.3c1.2,1.6,2.3,2.8,3.9,4c1.3,1,2.7,1.8,4.2,2.6
		c3,1.5,6.2,2.5,9.5,3c3.3,0.4,6.7,0.5,9.9-0.2c1.8-0.4,3.6-1,5.4-1.5c1.7-0.5,3.3-0.9,4.8-1.9c1.4-0.9,2.9-1.7,4.1-2.9
		c1-0.9,1.7-2.1,2.3-3.3C104.3,532.1,100.2,528.8,98.3,530.7"/>
	<path class="st15" d="M53.3,270.4c1.5,0.7,3.3-0.2,2.4-1.8c-0.9-1.5-2.1-2.8-3.4-4c-1.3-1.3-2-2.9-2.8-4.5
		c-1.9-3.7-3.6-7.4-4.8-11.5c-1.1-3.9-2.4-7.7-3.4-11.7c-0.9-3.9-1.2-7.9-2-11.7c-0.3-1.2-1.1-3.4-2.8-2.9c-1.4,0.4-1.3,2.6-1.3,3.7
		c-0.3,3.7-0.7,7.2-0.2,10.9c0.5,3.3,1.4,6.7,2.5,9.8c1.2,3.3,2.8,6.4,4.2,9.7c2.1,3.5,4,7.6,6.9,10.5
		C50,268.3,51.6,269.6,53.3,270.4"/>
	<path class="st15" d="M606.9,159c-0.7,0.2-1.4,1.4-1.8,2c-1.3,2.2-2.7,4.3-4,6.5c-1.2,2-2.4,4-3.6,6.1c-1,1.7-1.3,3.4,0.1,5
		c0.7,0.7,1.5,1.5,2.3,0.6c0.5-0.7,1-1.4,1.6-2c1.6-1.7,3.3-3.4,4.6-5.3c2.3-3.3,4-7.5,2.5-11.6C608.2,159.7,607.6,158.8,606.9,159"
		/>
</g>
<g>
	<g id="window_1_">
		<g>
			<path id="path-1_15_" class="st16" d="M295.5,316h365.4c5.1,0,9.2,4.1,9.2,9.2v375.7c0,5.1-4.1,9.2-9.2,9.2H295.5
				c-5.1,0-9.2-4.1-9.2-9.2V325.2C286.3,320.1,290.4,316,295.5,316z"/>
		</g>
		<g>
			<path id="path-1_2_" class="st16" d="M295.5,316h365.4c5.1,0,9.2,4.1,9.2,9.2v375.7c0,5.1-4.1,9.2-9.2,9.2H295.5
				c-5.1,0-9.2-4.1-9.2-9.2V325.2C286.3,320.1,290.4,316,295.5,316z"/>
		</g>
	</g>
	<path id="Rectangle_1_" class="st17" d="M323,645.9h310.4c5.1,0,9.2,4.1,9.2,9.2v18.3c0,5.1-4.1,9.2-9.2,9.2H323
		c-5.1,0-9.2-4.1-9.2-9.2V655C313.8,650,317.9,645.9,323,645.9z"/>
	<g id="nav_1_" transform="translate(20.000000, 19.000000)">
		<g id="nav-right_1_" transform="translate(230.000000, 0.000000)">
			<g id="pencil_1_" transform="translate(27.000000, 0.000000)">
				<path id="Shape_1_" class="st18" d="M338.9,318.8c-0.3,0-0.6,0.1-0.9,0.4l-0.9,0.9l3.1,3.1l0.9-0.9c0.5-0.5,0.5-1.3,0-1.8
					l-1.3-1.3C339.5,318.9,339.2,318.8,338.9,318.8z M335.9,321.2l-7.4,7.4l0.9,0.3l0.3,1.6l1.6,0.3l0.3,0.9l7.4-7.4L335.9,321.2z
					 M327.3,331.3l-0.7,2c0,0,0,0.1,0,0.1c0,0.2,0.1,0.3,0.3,0.3c0,0,0.1,0,0.1,0l2-0.7L327.3,331.3z"/>
			</g>
			<g id="speech_bubble_1_">
				<path id="Path_5_" class="st18" d="M331.2,318.8c-4.7,0-8.6,3.2-8.6,7.1c0,2.2,1.2,4.1,3,5.4c0,1-0.1,2.3-1.5,3c0,0,0,0,0,0
					c-0.1,0-0.2,0.2-0.2,0.3c0,0.2,0.1,0.3,0.3,0.3c0,0,0,0,0,0c0,0,0,0,0,0c1.6,0,3-0.9,3.9-1.7c0.3-0.3,0.7-0.4,1.1-0.3
					c0.6,0.1,1.2,0.2,1.9,0.2c4.7,0,8.6-3.2,8.6-7.1C339.8,321.9,336,318.8,331.2,318.8z"/>
			</g>
			<g id="like_1_" transform="translate(52.000000, 1.000000)">
				<path id="Path_4_" class="st18" d="M334.3,318.9c-2.2,0-4.1,1.8-4.1,4.1c0,3.9,4.5,7.7,6.6,9.4c0,0,0,0,0,0c0,0,0,0,0,0l0,0
					c0.2,0.2,0.5,0.3,0.7,0.3c0.3,0,0.5-0.1,0.7-0.3v0c0,0,0,0,0,0c0,0,0,0,0,0c0,0,0,0,0,0c2.1-1.7,6.7-5.4,6.7-9.4
					c0-2.3-1.8-4.1-4.1-4.1c-2.1,0-3.4,1.9-3.4,1.9S336.4,318.9,334.3,318.9z"/>
			</g>
		</g>
		<g id="close_1_" transform="translate(0.000000, 1.000000)">
			<path id="Path_3_" class="st18" d="M290.5,318.9c-0.5,0-1,0.3-1.2,0.8c-0.2,0.5-0.1,1,0.3,1.4l3.5,3.5l-3.5,3.5
				c-0.3,0.3-0.5,0.8-0.3,1.2c0.1,0.4,0.5,0.8,0.9,0.9c0.4,0.1,0.9,0,1.2-0.3l3.5-3.5l3.5,3.5c0.3,0.3,0.8,0.5,1.2,0.3
				c0.4-0.1,0.8-0.5,0.9-0.9c0.1-0.4,0-0.9-0.3-1.2l-3.5-3.5l3.5-3.5c0.4-0.4,0.5-0.9,0.3-1.4s-0.7-0.8-1.2-0.8
				c-0.3,0-0.6,0.1-0.9,0.4l-3.5,3.5l-3.5-3.5C291.2,319,290.8,318.9,290.5,318.9z"/>
		</g>
	</g>
	<circle id="avatar_9_" class="st19" cx="336.7" cy="403" r="22.9"/>
	<circle id="avatar_8_" class="st2" cx="336.7" cy="467.2" r="22.9"/>
	<circle id="avatar_7_" class="st20" cx="336.7" cy="531.3" r="22.9"/>
	<circle id="avatar_6_" class="st21" cx="336.7" cy="595.5" r="22.9"/>
	<g>
		<path id="text-line_31_" class="st17" d="M373.4,384.7H426c2.5,0,4.6,2.1,4.6,4.6v4.6c0,2.5-2.1,4.6-4.6,4.6h-52.7
			c-2.5,0-4.6-2.1-4.6-4.6v-4.6C368.8,386.8,370.8,384.7,373.4,384.7z"/>
		<path id="text-line_30_" class="st17" d="M373.4,407.6h84.8c2.5,0,4.6,2.1,4.6,4.6v4.6c0,2.5-2.1,4.6-4.6,4.6h-84.8
			c-2.5,0-4.6-2.1-4.6-4.6v-4.6C368.8,409.7,370.8,407.6,373.4,407.6z"/>
		<path id="text-line_29_" class="st17" d="M373.4,448.9H426c2.5,0,4.6,2.1,4.6,4.6v4.6c0,2.5-2.1,4.6-4.6,4.6h-52.7
			c-2.5,0-4.6-2.1-4.6-4.6v-4.6C368.8,450.9,370.8,448.9,373.4,448.9z"/>
		<path id="text-line_28_" class="st17" d="M373.4,471.8H544c2.5,0,4.6,2.1,4.6,4.6v4.6c0,2.5-2.1,4.6-4.6,4.6H373.4
			c-2.5,0-4.6-2.1-4.6-4.6v-4.6C368.8,473.8,370.8,471.8,373.4,471.8z"/>
		<path id="text-line_27_" class="st17" d="M373.4,513H426c2.5,0,4.6,2.1,4.6,4.6v4.6c0,2.5-2.1,4.6-4.6,4.6h-52.7
			c-2.5,0-4.6-2.1-4.6-4.6v-4.6C368.8,515.1,370.8,513,373.4,513z"/>
		<path id="text-line_26_" class="st17" d="M373.4,535.9h126c2.5,0,4.6,2.1,4.6,4.6v4.6c0,2.5-2.1,4.6-4.6,4.6h-126
			c-2.5,0-4.6-2.1-4.6-4.6v-4.6C368.8,538,370.8,535.9,373.4,535.9z"/>
		<path id="text-line_25_" class="st17" d="M373.4,577.1H426c2.5,0,4.6,2.1,4.6,4.6v4.6c0,2.5-2.1,4.6-4.6,4.6h-52.7
			c-2.5,0-4.6-2.1-4.6-4.6v-4.6C368.8,579.2,370.8,577.1,373.4,577.1z"/>
		<path id="text-line_5_" class="st17" d="M373.4,600h126c2.5,0,4.6,2.1,4.6,4.6v4.6c0,2.5-2.1,4.6-4.6,4.6h-126
			c-2.5,0-4.6-2.1-4.6-4.6v-4.6C368.8,602.1,370.8,600,373.4,600z"/>
	</g>
</g>
</svg>
